<svg width="82" height="79" viewBox="0 0 82 79" fill="none" xmlns="http://www.w3.org/2000/svg">
<path d="M41.3513 6.66895C59.9233 6.66895 74.9779 21.1859 74.9779 39.0946C74.9779 57.0034 59.9233 71.5203 41.3513 71.5203C35.9113 71.5273 30.5514 70.2563 25.7351 67.8173L11.3092 71.4393C10.8272 71.5603 10.3208 71.5578 9.84006 71.432C9.35936 71.3062 8.9211 71.0614 8.56872 70.7219C8.21634 70.3825 7.96208 69.9601 7.83112 69.4967C7.70017 69.0333 7.69708 68.5449 7.82216 68.08L11.5749 54.1726C9.03877 49.5234 7.71715 44.3478 7.72464 39.0946C7.72464 21.1859 22.7793 6.66895 41.3513 6.66895ZM45.5613 42.3372H30.4226L30.0796 42.3599C29.476 42.44 28.9228 42.7281 28.5224 43.171C28.122 43.6139 27.9014 44.1816 27.9014 44.7691C27.9014 45.3567 28.122 45.9244 28.5224 46.3673C28.9228 46.8102 29.476 47.0983 30.0796 47.1784L30.4226 47.2011H45.5613L45.901 47.1784C46.5046 47.0983 47.0578 46.8102 47.4582 46.3673C47.8586 45.9244 48.0792 45.3567 48.0792 44.7691C48.0792 44.1816 47.8586 43.6139 47.4582 43.171C47.0578 42.7281 46.5046 42.44 45.901 42.3599L45.5613 42.3372ZM52.2799 30.9882H30.4226L30.0796 31.0109C29.476 31.091 28.9228 31.3791 28.5224 31.822C28.122 32.2649 27.9014 32.8326 27.9014 33.4201C27.9014 34.0077 28.122 34.5754 28.5224 35.0183C28.9228 35.4612 29.476 35.7493 30.0796 35.8294L30.4226 35.8521H52.2799L52.6229 35.8294C53.2266 35.7493 53.7797 35.4612 54.1801 35.0183C54.5806 34.5754 54.8012 34.0077 54.8012 33.4201C54.8012 32.8326 54.5806 32.2649 54.1801 31.822C53.7797 31.3791 53.2266 31.091 52.6229 31.0109L52.2799 30.9882Z" fill="currentColor"/>
</svg>
