<svg xmlns="http://www.w3.org/2000/svg" xml:space="preserve" id="Laag_1" x="0" y="0" style="enable-background:new 0 0 59.4 68.9" version="1.1" viewBox="0 0 59.4 68.9" fill="currentColor"><path d="M17.6 54.8c-5.2 1.4-10.2-.4-8.6 5.6.6 5.4 5.6 9.3 11 8.6 5.4-.6 9.3-5.6 8.6-11-.1-.9-.4-1.8-.7-2.7-1.6-6-5.1-1.9-10.3-.5zM16.6 51.1c9.8-2.6 7.2-5.9 8.3-12.5 1-6.1-7.7-25-17.7-22.3s-8 23.3-4.1 28.2c4.4 5.3 3.8 9.2 13.5 6.6zM41.8 38.8c-5.2-1.4-8.6-5.5-10.2.5-2.1 5 .2 10.8 5.2 13 5 2.1 10.8-.2 13-5.2.4-.9.6-1.8.7-2.7 1.5-6.1-3.5-4.2-8.7-5.6zM52.1.3c-10-2.7-18.7 16.2-17.7 22.3 1.1 6.6-1.5 9.9 8.3 12.5s9.1-1.2 13.5-6.6c3.9-5 5.9-25.6-4.1-28.2z"/></svg>
