<svg width="93" height="93" viewBox="0 0 93 93" fill="none" xmlns="http://www.w3.org/2000/svg">
<path d="M46.2911 6.11328C37.8854 6.1232 29.8269 9.46673 23.8831 15.4105C17.9394 21.3542 14.5959 29.4127 14.586 37.8184C14.5759 44.6875 16.8197 51.3703 20.9731 56.8415C20.9731 56.8415 21.8378 57.98 21.979 58.1443L46.2911 86.8172L70.6147 58.1299C70.7415 57.9771 71.6091 56.8415 71.6091 56.8415L71.612 56.8328C75.7633 51.364 78.0061 44.6844 77.9962 37.8184C77.9863 29.4127 74.6428 21.3542 68.6991 15.4105C62.7553 9.46673 54.6968 6.1232 46.2911 6.11328ZM46.2911 49.3475C44.0108 49.3475 41.7818 48.6714 39.8859 47.4045C37.9899 46.1377 36.5122 44.3371 35.6396 42.2304C34.767 40.1237 34.5386 37.8056 34.9835 35.5692C35.4283 33.3328 36.5264 31.2785 38.1388 29.6661C39.7511 28.0537 41.8054 26.9557 44.0419 26.5108C46.2783 26.0659 48.5964 26.2943 50.7031 27.1669C52.8098 28.0395 54.6104 29.5172 55.8772 31.4132C57.1441 33.3091 57.8202 35.5382 57.8202 37.8184C57.8164 40.875 56.6005 43.8052 54.4392 45.9665C52.2779 48.1278 49.3476 49.3437 46.2911 49.3475Z" fill="currentColor"/>
</svg>
